<svg width="119" height="54" viewBox="0 0 119 54" fill="none" xmlns="http://www.w3.org/2000/svg">
<rect x="0.5" y="-9.53674e-06" width="118" height="54" rx="12" fill="url(#paint0_radial)"/>
<path d="M39.1191 32.4111H45.9619V35H35.8965V19.3594H39.1191V32.4111ZM47.1328 29.081C47.1328 27.9281 47.3548 26.9004 47.7988 25.998C48.2428 25.0957 48.8802 24.3975 49.7109 23.9033C50.5488 23.4092 51.5192 23.1621 52.6221 23.1621C54.1904 23.1621 55.4688 23.6419 56.457 24.6016C57.4525 25.5612 58.0075 26.8646 58.1221 28.5117L58.1436 29.3066C58.1436 31.0898 57.6458 32.5221 56.6504 33.6035C55.6549 34.6777 54.3193 35.2148 52.6436 35.2148C50.9678 35.2148 49.6286 34.6777 48.626 33.6035C47.6305 32.5293 47.1328 31.0683 47.1328 29.2207V29.081ZM50.2373 29.3066C50.2373 30.4095 50.445 31.2545 50.8604 31.8418C51.2757 32.4219 51.8701 32.7119 52.6436 32.7119C53.3955 32.7119 53.9827 32.4254 54.4053 31.8525C54.8278 31.2725 55.0391 30.3486 55.0391 29.081C55.0391 27.9997 54.8278 27.1618 54.4053 26.5674C53.9827 25.973 53.3883 25.6758 52.6221 25.6758C51.863 25.6758 51.2757 25.973 50.8604 26.5674C50.445 27.1546 50.2373 28.0677 50.2373 29.3066ZM59.6045 29.1025C59.6045 27.3193 60.027 25.8835 60.8721 24.7949C61.7243 23.7064 62.8701 23.1621 64.3096 23.1621C65.5843 23.1621 66.5762 23.5989 67.2852 24.4726L67.4141 23.3769H70.2285V34.6133C70.2285 35.6302 69.9958 36.5146 69.5303 37.2666C69.0719 38.0185 68.4238 38.5915 67.5859 38.9853C66.748 39.3792 65.7669 39.5762 64.6426 39.5762C63.7904 39.5762 62.9596 39.4043 62.1504 39.0605C61.3411 38.7239 60.7288 38.2871 60.3135 37.75L61.6885 35.8594C62.4619 36.7259 63.4001 37.1592 64.5029 37.1592C65.3265 37.1592 65.9674 36.9372 66.4258 36.4932C66.8841 36.0563 67.1133 35.4333 67.1133 34.624V34.001C66.3971 34.8102 65.4554 35.2148 64.2881 35.2148C62.8916 35.2148 61.7601 34.6706 60.8936 33.582C60.0342 32.4863 59.6045 31.0361 59.6045 29.2314V29.1025ZM62.709 29.3281C62.709 30.3808 62.9202 31.208 63.3428 31.8096C63.7653 32.404 64.3454 32.7012 65.083 32.7012C66.0283 32.7012 66.7051 32.3467 67.1133 31.6377V26.75C66.6979 26.041 66.0283 25.6865 65.1045 25.6865C64.3597 25.6865 63.7725 25.9909 63.3428 26.5996C62.9202 27.2083 62.709 28.1178 62.709 29.3281ZM72.1406 29.081C72.1406 27.9281 72.3626 26.9004 72.8066 25.998C73.2507 25.0957 73.888 24.3975 74.7188 23.9033C75.5566 23.4092 76.527 23.1621 77.6299 23.1621C79.1982 23.1621 80.4766 23.6419 81.4648 24.6016C82.4603 25.5612 83.0153 26.8646 83.1299 28.5117L83.1514 29.3066C83.1514 31.0898 82.6536 32.5221 81.6582 33.6035C80.6628 34.6777 79.3271 35.2148 77.6514 35.2148C75.9756 35.2148 74.6364 34.6777 73.6338 33.6035C72.6383 32.5293 72.1406 31.0683 72.1406 29.2207V29.081ZM75.2451 29.3066C75.2451 30.4095 75.4528 31.2545 75.8682 31.8418C76.2835 32.4219 76.8779 32.7119 77.6514 32.7119C78.4033 32.7119 78.9906 32.4254 79.4131 31.8525C79.8356 31.2725 80.0469 30.3486 80.0469 29.081C80.0469 27.9997 79.8356 27.1618 79.4131 26.5674C78.9906 25.973 78.3962 25.6758 77.6299 25.6758C76.8708 25.6758 76.2835 25.973 75.8682 26.5674C75.4528 27.1546 75.2451 28.0677 75.2451 29.3066Z" fill="white"/>
<defs>
<radialGradient id="paint0_radial" cx="0" cy="0" r="1" gradientUnits="userSpaceOnUse" gradientTransform="translate(21.5 -22) rotate(50.3431) scale(98.7168 215.714)">
<stop stop-color="#71CCFF"/>
<stop offset="1" stop-color="#ADFFC7"/>
</radialGradient>
</defs>
</svg>
